HIERARCHY
ROOT Hips
{
	OFFSET 0.00000 0.00000 0.00000
	CHANNELS 6 Xposition Yposition Zposition Zrotation Yrotation Xrotation 
	JOINT LHipJoint
	{
		OFFSET 0 0 0
		CHANNELS 3 Zrotation Yrotation Xrotation
		JOINT LeftHip
		{
			OFFSET 1.76014 -1.80163 0.38499
			CHANNELS 3 Zrotation Yrotation Xrotation
			JOINT LeftKnee
			{
				OFFSET 2.46817 -6.78126 0.00000
				CHANNELS 3 Zrotation Yrotation Xrotation
				JOINT LeftAnkle
				{
					OFFSET 2.79348 -7.67503 0.00000
					CHANNELS 3 Zrotation Yrotation Xrotation
					JOINT LeftToe
					{
						OFFSET 0.09421 -0.25885 1.91403
						CHANNELS 3 Zrotation Yrotation Xrotation
						End Site
						{
							OFFSET 0.00000 -0.00000 0.97975
						}
					}
				}
			}
		}
	}
	JOINT RHipJoint
	{
		OFFSET 0 0 0
		CHANNELS 3 Zrotation Yrotation Xrotation
		JOINT RightHip
		{
			OFFSET -1.77926 -1.80163 0.38499
			CHANNELS 3 Zrotation Yrotation Xrotation
			JOINT RightKnee
			{
				OFFSET -2.51996 -6.92353 0.00000
				CHANNELS 3 Zrotation Yrotation Xrotation
				JOINT RightAnkle
				{
					OFFSET -2.76109 -7.58603 0.00000
					CHANNELS 3 Zrotation Yrotation Xrotation
					JOINT RightToe
					{
						OFFSET -0.08067 -0.22163 1.86812
						CHANNELS 3 Zrotation Yrotation Xrotation
						End Site
						{
							OFFSET -0.00000 -0.00000 0.95558
						}
					}
				}
			}
		}
	}
	JOINT lowerback
	{
		OFFSET 0 0 0
		CHANNELS 3 Zrotation Yrotation Xrotation
		JOINT Chest
		{
			OFFSET 0.05537 1.92033 -0.03713
			CHANNELS 3 Zrotation Yrotation Xrotation
			JOINT Chest2
			{
				OFFSET 0.04452 1.90073 0.10860
				CHANNELS 3 Zrotation Yrotation Xrotation
				JOINT lowerneck
				{
					OFFSET 0 0 0
					CHANNELS 3 Zrotation Yrotation Xrotation
					JOINT Neck
					{
						OFFSET 0.00903 1.74649 0.02074
						CHANNELS 3 Zrotation Yrotation Xrotation
						JOINT Head
						{
							OFFSET -0.08608 1.67844 -0.12081
							CHANNELS 3 Zrotation Yrotation Xrotation
							End Site
							{
								OFFSET -0.03521 1.83380 -0.05059
							}
						}
					}
				}
				JOINT LeftCollar
				{
					OFFSET 0 0 0
					CHANNELS 3 Zrotation Yrotation Xrotation
					JOINT LeftShoulder
					{
						OFFSET 3.28197 0.84325 -0.19106
CHANNELS 3 Zrotation Xrotation Yrotation
						JOINT LeftElbow
						{
OFFSET 0 -5.243180 -0.000000
CHANNELS 3 Zrotation Xrotation Yrotation
							JOINT LeftWrist
							{
OFFSET 0 -2.989990 0.000000
CHANNELS 3 Zrotation Xrotation Yrotation
								JOINT lhand
								{
									OFFSET 0 0 0
CHANNELS 3 Zrotation Xrotation Yrotation
									JOINT LFingers
									{
OFFSET 0 -0.726740 0.000000
CHANNELS 3 Zrotation Xrotation Yrotation
										End Site
										{
OFFSET 0 -0.585920 0.000000
										}
									}
								}
								JOINT LThumb
								{
OFFSET 0 0.000000 0.000000
CHANNELS 3 Zrotation Xrotation Yrotation
									End Site
									{
OFFSET 0 -0.594870 0.594870
									}
								}
							}
						}
					}
				}
				JOINT RightCollar
				{
					OFFSET 0 0 0
					CHANNELS 3 Zrotation Yrotation Xrotation
					JOINT RightShoulder
					{
						OFFSET -3.30963 0.78377 0.14264
CHANNELS 3 Zrotation Xrotation Yrotation
						JOINT RightElbow
						{
OFFSET 0 -5.370450 0.000000
CHANNELS 3 Zrotation Xrotation Yrotation
							JOINT RightWrist
							{
OFFSET 0 -2.927920 0.000000
CHANNELS 3 Zrotation Xrotation Yrotation
								JOINT rhand
								{
									OFFSET 0 0 0
CHANNELS 3 Zrotation Xrotation Yrotation
									JOINT RFingers
									{
OFFSET 0 -0.784500 0.000000
CHANNELS 3 Zrotation Xrotation Yrotation
										End Site
										{
OFFSET 0 -0.632480 0.000000
										}
									}
								}
								JOINT RThumb
								{
OFFSET 0 0.000000 0.000000
CHANNELS 3 Zrotation Xrotation Yrotation
									End Site
									{
OFFSET 0 -0.642140 0.642140
									}
								}
							}
						}
					}
				}
			}
		}
	}
}
MOTION
Frames: 6
Frame Time: 0.008333333333333333
0.931462 18.256301 0.026316 3.935856 10.396165 29.451588 0.000000 0.000000 0.000000 -8.649090 -37.176496 -21.369301 0.000000 0.000000 0.000000 -1.718999 24.342030 0.956606 0.695266 -5.328983 -14.849515 0.000000 0.000000 0.000000 -2.031806 34.070458 -27.165982 -0.616336 -5.024212 13.977620 -4.698576 -16.646611 -48.592344 -6.005813 -14.433916 45.004949 9.816843 1.401393 12.123880 10.732459 4.284013 -1.292698 5.312497 1.927363 -8.457284 6.538923 -6.492782 6.014387 -19.562316 -11.121015 -12.728547 -6.491910 -4.568147 -6.338273 0.000000 0.000000 0.000000 2.138913 1.461303 -41.082192 138.702044 -48.820365 100.589391 9.865359 25.657324 -18.347089 0.000000 0.000000 0.000000 -7.125000 0.000000 0.000000 -17.498674 47.785661 1.239312 0.000000 0.000000 0.000000 -15.317708 -2.324034 17.753461 -156.598050 -34.525457 -112.635119 18.916946 31.341914 -3.597706 0.000000 0.000000 0.000000 7.125000 0.000000 0.000000 32.570841 25.316698 18.573205
0.920013 18.239707 -0.084349 5.526251 11.058514 30.682034 0.000000 0.000000 0.000000 -8.471024 -38.965637 -23.257766 0.000000 0.000000 0.000000 -1.525090 23.817598 2.707629 1.044146 -6.498238 -18.237126 0.000000 0.000000 0.000000 -6.169353 37.536894 -28.750874 -0.762874 -5.577906 15.564528 -7.347993 -11.799036 -55.536715 -7.159002 -15.464401 49.473246 11.223747 1.581824 12.979905 11.620831 4.903546 -0.798876 5.394918 2.190898 -8.414394 6.937646 -6.604819 5.435339 -20.881986 -11.460298 -12.549334 -6.994322 -4.720839 -6.335792 0.000000 0.000000 0.000000 1.083116 1.986234 -39.828241 139.104399 -48.591643 100.891774 10.310700 25.714640 -16.980913 0.000000 0.000000 0.000000 -7.125000 0.000000 0.000000 -16.582428 46.528302 0.642717 0.000000 0.000000 0.000000 -15.693428 -3.151895 16.102546 -156.580852 -34.543912 -112.625456 18.408624 31.705819 -3.660453 0.000000 0.000000 0.000000 7.125000 0.000000 0.000000 32.247502 25.307894 18.319470
0.870267 18.227120 -0.144631 6.341940 10.052952 31.863282 0.000000 0.000000 0.000000 -8.341693 -38.793396 -24.902752 0.000000 0.000000 0.000000 -1.438010 23.220884 2.744475 1.037162 -6.474148 -18.167531 0.000000 0.000000 0.000000 -12.369395 45.429678 -29.981071 -0.775576 -5.623032 15.694426 -10.784872 -6.613611 -64.795211 -8.052011 -16.157171 52.749568 11.480050 1.511658 13.957026 11.719526 4.968383 -0.368678 5.325741 2.207073 -8.488516 7.384474 -6.080348 5.443325 -21.448062 -10.984500 -13.677691 -7.351340 -4.421284 -6.672589 0.000000 0.000000 0.000000 -0.309324 3.998964 -37.948071 139.480684 -48.374604 101.173505 9.417341 25.699673 -17.008831 0.000000 0.000000 0.000000 -7.125000 0.000000 0.000000 -17.402064 46.440688 0.639146 0.000000 0.000000 0.000000 -14.953485 -4.409243 16.350479 -155.854755 -35.317491 -112.209591 19.785232 33.051685 -4.002371 0.000000 0.000000 0.000000 7.125000 0.000000 0.000000 32.971941 24.872619 19.334407
0.767798 18.209716 -0.159016 6.084376 8.342574 33.347628 0.000000 0.000000 0.000000 -7.226501 -37.406054 -27.025935 0.000000 0.000000 0.000000 -1.434162 22.856816 2.045553 0.921152 -6.114851 -17.118082 0.000000 0.000000 0.000000 -17.272968 49.881180 -33.101212 -0.711879 -5.392312 15.031031 -12.319329 -4.036142 -68.853333 -8.514301 -16.484815 54.394756 10.989122 1.667775 13.772857 11.076584 5.015090 -0.566255 4.863945 2.220919 -8.566978 6.952871 -5.509087 5.495217 -20.856087 -10.486885 -15.721668 -7.178125 -4.083821 -7.186081 0.000000 0.000000 0.000000 -0.609062 5.389853 -37.987249 138.965427 -48.670974 100.787422 9.384221 25.750954 -16.915557 0.000000 0.000000 0.000000 -7.125000 0.000000 0.000000 -17.397343 46.347309 0.596350 0.000000 0.000000 0.000000 -13.505555 -4.143049 17.244601 -155.713441 -35.465848 -112.127773 19.312340 33.767864 -3.542136 0.000000 0.000000 0.000000 7.125000 0.000000 0.000000 32.822728 25.328320 18.768499
0.637520 18.217961 -0.103822 5.261110 6.926465 33.082643 0.000000 0.000000 0.000000 -7.014053 -35.681152 -26.557026 0.000000 0.000000 0.000000 -1.548215 23.151800 0.859887 0.698508 -5.342573 -14.888217 0.000000 0.000000 0.000000 -14.712552 47.817034 -33.178309 -0.662513 -5.205636 14.496046 -10.403128 -8.927255 -64.195933 -8.027836 -16.139700 52.662838 9.876740 1.375854 13.670625 9.868649 4.391775 -1.123231 4.264482 1.915640 -9.074962 5.915040 -5.132978 5.760004 -19.739792 -9.994510 -16.573179 -6.666826 -3.795553 -7.317400 0.000000 0.000000 0.000000 -0.273765 5.225673 -38.435770 137.514091 -49.475597 99.690867 8.296164 26.443147 -17.279394 0.000000 0.000000 0.000000 -7.125000 0.000000 0.000000 -18.514090 46.556943 0.736143 0.000000 0.000000 0.000000 -11.813068 -2.631398 18.431756 -155.427789 -35.763476 -111.961519 19.272394 34.318974 -3.906364 0.000000 0.000000 0.000000 7.125000 0.000000 0.000000 32.696066 25.008487 18.971010
0.475531 18.235156 0.004683 4.542807 5.886451 31.677144 0.000000 0.000000 0.000000 -7.557109 -34.137654 -24.423292 0.000000 0.000000 0.000000 -1.646700 23.663841 0.452049 0.770972 -5.605873 -15.645270 0.000000 0.000000 0.000000 -9.356216 44.196778 -31.203767 -0.642916 -5.129519 14.278340 -7.619784 -13.917076 -57.252690 -7.219835 -15.513553 49.699652 8.290185 0.861172 13.039878 7.693764 3.200521 -1.617304 2.995242 1.347694 -9.155379 4.672203 -4.736301 6.066310 -16.549321 -8.934360 -16.588114 -5.437129 -3.414212 -7.012938 0.000000 0.000000 0.000000 0.701390 4.065874 -38.926666 136.925540 -49.789484 99.242378 9.214532 27.026263 -16.652838 0.000000 0.000000 0.000000 -7.125000 0.000000 0.000000 -17.455495 46.073611 0.477108 0.000000 0.000000 0.000000 -10.050359 -1.224454 20.448560 -155.025057 -36.178350 -111.724916 19.402447 34.697419 -3.526536 0.000000 0.000000 0.000000 7.125000 0.000000 0.000000 32.880841 25.333391 18.811386
